<svg width="42" height="12" viewBox="0 0 42 12" fill="none" xmlns="http://www.w3.org/2000/svg">
<path d="M5.73317 8.064C5.47984 8.064 5.26384 8.02133 5.08517 7.936C4.90917 7.85067 4.76651 7.73733 4.65717 7.596C4.54784 7.452 4.46784 7.29333 4.41717 7.12C4.36651 6.94667 4.34117 6.77333 4.34117 6.6C4.34117 6.432 4.36917 6.26267 4.42517 6.092C4.48384 5.91867 4.57051 5.76 4.68517 5.616C4.80251 5.472 4.94917 5.356 5.12517 5.268C5.30117 5.18 5.50784 5.136 5.74517 5.136C5.98784 5.136 6.19717 5.18 6.37317 5.268C6.54917 5.356 6.69317 5.47333 6.80517 5.62C6.91717 5.764 6.99984 5.92133 7.05317 6.092C7.10917 6.26267 7.13717 6.432 7.13717 6.6C7.13717 6.76533 7.10784 6.93333 7.04917 7.104C6.99317 7.27467 6.90651 7.43333 6.78917 7.58C6.67451 7.724 6.52917 7.84133 6.35317 7.932C6.17717 8.02 5.97051 8.064 5.73317 8.064ZM5.77717 7.772C5.91584 7.772 6.03184 7.73867 6.12517 7.672C6.21851 7.60267 6.29317 7.51333 6.34917 7.404C6.40517 7.29467 6.44517 7.176 6.46917 7.048C6.49317 6.91733 6.50517 6.79067 6.50517 6.668C6.50517 6.484 6.48917 6.316 6.45717 6.164C6.42517 6.012 6.37584 5.88133 6.30917 5.772C6.24251 5.66 6.15717 5.57467 6.05317 5.516C5.95184 5.45467 5.83184 5.42533 5.69317 5.428C5.55717 5.43067 5.44251 5.468 5.34917 5.54C5.25584 5.60933 5.18117 5.7 5.12517 5.812C5.06917 5.92133 5.02917 6.04133 5.00517 6.172C4.98117 6.30267 4.96917 6.42933 4.96917 6.552C4.96917 6.67733 4.98251 6.81067 5.00917 6.952C5.03851 7.09333 5.08384 7.22667 5.14517 7.352C5.20651 7.47733 5.28917 7.57867 5.39317 7.656C5.49717 7.73333 5.62517 7.772 5.77717 7.772ZM7.42852 8V7.736C7.48985 7.73333 7.54052 7.72533 7.58052 7.712C7.62318 7.69867 7.65518 7.668 7.67652 7.62C7.70052 7.572 7.71252 7.49467 7.71252 7.388V5.856C7.71252 5.784 7.71385 5.71467 7.71652 5.648C7.72185 5.58133 7.72585 5.53067 7.72852 5.496C7.68585 5.49867 7.63252 5.50133 7.56852 5.504C7.50452 5.504 7.45785 5.50533 7.42852 5.508V5.2H9.42852L9.45252 5.976H9.18852C9.18852 5.82933 9.16318 5.71867 9.11252 5.644C9.06185 5.56933 8.99918 5.52 8.92452 5.496C8.84985 5.46933 8.77652 5.45733 8.70452 5.46L8.56052 5.464C8.50452 5.464 8.45652 5.472 8.41652 5.488C8.37652 5.50133 8.34585 5.53333 8.32452 5.584C8.30318 5.632 8.29252 5.708 8.29252 5.812V6.508H8.70452L8.68852 6.164H8.99652V7.136H8.73252C8.73252 7.024 8.71518 6.94267 8.68052 6.892C8.64585 6.84133 8.59785 6.81067 8.53652 6.8C8.47785 6.78667 8.41252 6.78133 8.34052 6.784H8.29252V7.344C8.29252 7.416 8.29118 7.48533 8.28852 7.552C8.28585 7.61867 8.28185 7.66933 8.27652 7.704C8.30585 7.70133 8.34452 7.7 8.39252 7.7C8.44052 7.69733 8.48718 7.696 8.53252 7.696C8.58052 7.69333 8.61385 7.692 8.63252 7.692V8H7.42852ZM9.71367 8V7.736C9.77501 7.73333 9.82567 7.72533 9.86567 7.712C9.90834 7.69867 9.94034 7.668 9.96167 7.62C9.98567 7.572 9.99767 7.49467 9.99767 7.388V5.856C9.99767 5.784 9.99901 5.71467 10.0017 5.648C10.007 5.58133 10.011 5.53067 10.0137 5.496C9.97101 5.49867 9.91767 5.50133 9.85367 5.504C9.78967 5.504 9.74301 5.50533 9.71367 5.508V5.2H11.7137L11.7377 5.976H11.4737C11.4737 5.82933 11.4483 5.71867 11.3977 5.644C11.347 5.56933 11.2843 5.52 11.2097 5.496C11.135 5.46933 11.0617 5.45733 10.9897 5.46L10.8457 5.464C10.7897 5.464 10.7417 5.472 10.7017 5.488C10.6617 5.50133 10.631 5.53333 10.6097 5.584C10.5883 5.632 10.5777 5.708 10.5777 5.812V6.508H10.9897L10.9737 6.164H11.2817V7.136H11.0177C11.0177 7.024 11.0003 6.94267 10.9657 6.892C10.931 6.84133 10.883 6.81067 10.8217 6.8C10.763 6.78667 10.6977 6.78133 10.6257 6.784H10.5777V7.344C10.5777 7.416 10.5763 7.48533 10.5737 7.552C10.571 7.61867 10.567 7.66933 10.5617 7.704C10.591 7.70133 10.6297 7.7 10.6777 7.7C10.7257 7.69733 10.7723 7.696 10.8177 7.696C10.8657 7.69333 10.899 7.692 10.9177 7.692V8H9.71367Z" fill="#1A6CBB"/>
<rect x="0.5" y="0.5" width="41" height="11" rx="5.5" stroke="#1A6CBB"/>
<circle cx="36" cy="6" r="5" fill="#1A6CBB"/>
</svg>
