<svg width="42" height="12" viewBox="0 0 42 12" fill="none" xmlns="http://www.w3.org/2000/svg">
<path d="M31.9715 8.064C31.7181 8.064 31.5021 8.02133 31.3235 7.936C31.1475 7.85067 31.0048 7.73733 30.8955 7.596C30.7861 7.452 30.7061 7.29333 30.6555 7.12C30.6048 6.94667 30.5795 6.77333 30.5795 6.6C30.5795 6.432 30.6075 6.26267 30.6635 6.092C30.7221 5.91867 30.8088 5.76 30.9235 5.616C31.0408 5.472 31.1875 5.356 31.3635 5.268C31.5395 5.18 31.7461 5.136 31.9835 5.136C32.2261 5.136 32.4355 5.18 32.6115 5.268C32.7875 5.356 32.9315 5.47333 33.0435 5.62C33.1555 5.764 33.2381 5.92133 33.2915 6.092C33.3475 6.26267 33.3755 6.432 33.3755 6.6C33.3755 6.76533 33.3461 6.93333 33.2875 7.104C33.2315 7.27467 33.1448 7.43333 33.0275 7.58C32.9128 7.724 32.7675 7.84133 32.5915 7.932C32.4155 8.02 32.2088 8.064 31.9715 8.064ZM32.0155 7.772C32.1541 7.772 32.2701 7.73867 32.3635 7.672C32.4568 7.60267 32.5315 7.51333 32.5875 7.404C32.6435 7.29467 32.6835 7.176 32.7075 7.048C32.7315 6.91733 32.7435 6.79067 32.7435 6.668C32.7435 6.484 32.7275 6.316 32.6955 6.164C32.6635 6.012 32.6141 5.88133 32.5475 5.772C32.4808 5.66 32.3955 5.57467 32.2915 5.516C32.1901 5.45467 32.0701 5.42533 31.9315 5.428C31.7955 5.43067 31.6808 5.468 31.5875 5.54C31.4941 5.60933 31.4195 5.7 31.3635 5.812C31.3075 5.92133 31.2675 6.04133 31.2435 6.172C31.2195 6.30267 31.2075 6.42933 31.2075 6.552C31.2075 6.67733 31.2208 6.81067 31.2475 6.952C31.2768 7.09333 31.3221 7.22667 31.3835 7.352C31.4448 7.47733 31.5275 7.57867 31.6315 7.656C31.7355 7.73333 31.8635 7.772 32.0155 7.772ZM35.7948 8.04L34.5148 6.404C34.4801 6.35867 34.4441 6.31067 34.4068 6.26C34.3695 6.20933 34.3321 6.15733 34.2948 6.104H34.2908L34.2988 7.344C34.2988 7.416 34.2975 7.48533 34.2948 7.552C34.2921 7.61867 34.2881 7.66933 34.2828 7.704C34.3255 7.69867 34.3788 7.696 34.4428 7.696C34.5095 7.69333 34.5561 7.692 34.5828 7.692V8H33.6708V7.736C33.7321 7.73333 33.7828 7.72533 33.8228 7.712C33.8655 7.69867 33.8975 7.668 33.9188 7.62C33.9428 7.572 33.9548 7.49467 33.9548 7.388L33.9468 5.856C33.9468 5.784 33.9481 5.71467 33.9508 5.648C33.9535 5.58133 33.9575 5.53067 33.9628 5.496C33.9201 5.49867 33.8655 5.50133 33.7988 5.504C33.7348 5.504 33.6881 5.50533 33.6588 5.508V5.2H34.2868L35.5108 6.744C35.5775 6.82933 35.6321 6.90267 35.6748 6.964C35.7201 7.02533 35.7588 7.07867 35.7908 7.124H35.7948V5.856C35.7948 5.784 35.7961 5.71467 35.7988 5.648C35.8015 5.58133 35.8041 5.53067 35.8068 5.496C35.7641 5.49867 35.7108 5.50133 35.6468 5.504C35.5828 5.504 35.5361 5.50533 35.5068 5.508V5.2H36.4188V5.464C36.3601 5.46667 36.3095 5.47467 36.2668 5.488C36.2241 5.50133 36.1908 5.532 36.1668 5.58C36.1455 5.62533 36.1348 5.70267 36.1348 5.812V8.04H35.7948Z" fill="#2C282A"/>
<rect x="0.5" y="0.5" width="41" height="11" rx="5.5" stroke="black"/>
<circle cx="6" cy="6" r="5" fill="#2C282A"/>
</svg>
